<mxfile host="app.diagrams.net" modified="2024-09-18T03:00:00.000Z" agent="5.0" etag="xxx" version="21.6.5" type="device">
  <diagram name="大数据时代技术演进" id="tech-evolution">
    <mxGraphModel dx="1422" dy="794" grid="1" gridSize="10" guides="1" tooltips="1" connect="1" arrows="1" fold="1" page="1" pageScale="1" pageWidth="1169" pageHeight="827" math="0" shadow="0">
      <root>
        <mxCell id="0" />
        <mxCell id="1" parent="0" />
        
        <!-- 时间轴 -->
        <mxCell id="timeline" value="" style="endArrow=classic;html=1;rounded=0;strokeWidth=3;strokeColor=#d79b00;" edge="1" parent="1">
          <mxGeometry width="50" height="50" relative="1" as="geometry">
            <mxPoint x="100" y="700" as="sourcePoint" />
            <mxPoint x="1000" y="700" as="targetPoint" />
          </mxGeometry>
        </mxCell>
        
        <!-- 时间标记 -->
        <mxCell id="time1" value="2000年代初" style="text;html=1;strokeColor=none;fillColor=none;align=center;verticalAlign=middle;whiteSpace=wrap;rounded=0;fontSize=12;fontStyle=1;" vertex="1" parent="1">
          <mxGeometry x="150" y="710" width="80" height="30" as="geometry" />
        </mxCell>
        
        <mxCell id="time2" value="2006年" style="text;html=1;strokeColor=none;fillColor=none;align=center;verticalAlign=middle;whiteSpace=wrap;rounded=0;fontSize=12;fontStyle=1;" vertex="1" parent="1">
          <mxGeometry x="400" y="710" width="60" height="30" as="geometry" />
        </mxCell>
        
        <mxCell id="time3" value="2010年代" style="text;html=1;strokeColor=none;fillColor=none;align=center;verticalAlign=middle;whiteSpace=wrap;rounded=0;fontSize=12;fontStyle=1;" vertex="1" parent="1">
          <mxGeometry x="650" y="710" width="80" height="30" as="geometry" />
        </mxCell>
        
        <mxCell id="time4" value="现在" style="text;html=1;strokeColor=none;fillColor=none;align=center;verticalAlign=middle;whiteSpace=wrap;rounded=0;fontSize=12;fontStyle=1;" vertex="1" parent="1">
          <mxGeometry x="900" y="710" width="60" height="30" as="geometry" />
        </mxCell>
        
        <!-- 数据规模增长曲线 -->
        <mxCell id="data-growth" value="" style="endArrow=none;html=1;rounded=0;strokeWidth=4;strokeColor=#e74c3c;curved=1;" edge="1" parent="1">
          <mxGeometry width="50" height="50" relative="1" as="geometry">
            <mxPoint x="150" y="600" as="sourcePoint" />
            <mxPoint x="900" y="100" as="targetPoint" />
            <Array as="points">
              <mxPoint x="300" y="550" />
              <mxPoint x="500" y="400" />
              <mxPoint x="700" y="200" />
            </Array>
          </mxGeometry>
        </mxCell>
        
        <mxCell id="data-label" value="数据规模增长" style="text;html=1;strokeColor=none;fillColor=none;align=center;verticalAlign=middle;whiteSpace=wrap;rounded=0;fontSize=14;fontStyle=1;fontColor=#e74c3c;" vertex="1" parent="1">
          <mxGeometry x="800" y="80" width="100" height="30" as="geometry" />
        </mxCell>
        
        <!-- 单机时代 -->
        <mxCell id="single-machine" value="单机时代" style="rounded=1;whiteSpace=wrap;html=1;fillColor=#f8cecc;strokeColor=#b85450;fontSize=14;fontStyle=1;" vertex="1" parent="1">
          <mxGeometry x="120" y="500" width="120" height="60" as="geometry" />
        </mxCell>
        
        <mxCell id="single-features" value="• 垂直扩展&#xa;• 单点故障风险&#xa;• 成本高昂&#xa;• 处理能力有限" style="text;html=1;strokeColor=none;fillColor=none;align=left;verticalAlign=top;whiteSpace=wrap;rounded=0;fontSize=11;" vertex="1" parent="1">
          <mxGeometry x="120" y="420" width="120" height="70" as="geometry" />
        </mxCell>
        
        <!-- Hadoop诞生 -->
        <mxCell id="hadoop-birth" value="Hadoop诞生" style="rounded=1;whiteSpace=wrap;html=1;fillColor=#dae8fc;strokeColor=#6c8ebf;fontSize=14;fontStyle=1;" vertex="1" parent="1">
          <mxGeometry x="370" y="350" width="120" height="60" as="geometry" />
        </mxCell>
        
        <mxCell id="hadoop-features" value="• 水平扩展&#xa;• 容错设计&#xa;• 开源免费&#xa;• 商用硬件" style="text;html=1;strokeColor=none;fillColor=none;align=left;verticalAlign=top;whiteSpace=wrap;rounded=0;fontSize=11;" vertex="1" parent="1">
          <mxGeometry x="370" y="270" width="120" height="70" as="geometry" />
        </mxCell>
        
        <!-- 分布式时代 -->
        <mxCell id="distributed-era" value="分布式时代" style="rounded=1;whiteSpace=wrap;html=1;fillColor=#d5e8d4;strokeColor=#82b366;fontSize=14;fontStyle=1;" vertex="1" parent="1">
          <mxGeometry x="620" y="200" width="120" height="60" as="geometry" />
        </mxCell>
        
        <mxCell id="distributed-features" value="• 大规模集群&#xa;• 高可用性&#xa;• 弹性扩展&#xa;• 生态丰富" style="text;html=1;strokeColor=none;fillColor=none;align=left;verticalAlign=top;whiteSpace=wrap;rounded=0;fontSize=11;" vertex="1" parent="1">
          <mxGeometry x="620" y="120" width="120" height="70" as="geometry" />
        </mxCell>
        
        <!-- 云原生时代 -->
        <mxCell id="cloud-native" value="云原生时代" style="rounded=1;whiteSpace=wrap;html=1;fillColor=#e1d5e7;strokeColor=#9673a6;fontSize=14;fontStyle=1;" vertex="1" parent="1">
          <mxGeometry x="870" y="150" width="120" height="60" as="geometry" />
        </mxCell>
        
        <mxCell id="cloud-features" value="• 容器化部署&#xa;• 微服务架构&#xa;• 自动化运维&#xa;• 混合云支持" style="text;html=1;strokeColor=none;fillColor=none;align=left;verticalAlign=top;whiteSpace=wrap;rounded=0;fontSize=11;" vertex="1" parent="1">
          <mxGeometry x="870" y="70" width="120" height="70" as="geometry" />
        </mxCell>
        
        <!-- 连接箭头 -->
        <mxCell id="arrow1" value="" style="endArrow=classic;html=1;rounded=0;strokeWidth=2;strokeColor=#d79b00;" edge="1" parent="1">
          <mxGeometry width="50" height="50" relative="1" as="geometry">
            <mxPoint x="250" y="520" as="sourcePoint" />
            <mxPoint x="360" y="390" as="targetPoint" />
          </mxGeometry>
        </mxCell>
        
        <mxCell id="arrow2" value="" style="endArrow=classic;html=1;rounded=0;strokeWidth=2;strokeColor=#d79b00;" edge="1" parent="1">
          <mxGeometry width="50" height="50" relative="1" as="geometry">
            <mxPoint x="500" y="370" as="sourcePoint" />
            <mxPoint x="610" y="240" as="targetPoint" />
          </mxGeometry>
        </mxCell>
        
        <mxCell id="arrow3" value="" style="endArrow=classic;html=1;rounded=0;strokeWidth=2;strokeColor=#d79b00;" edge="1" parent="1">
          <mxGeometry width="50" height="50" relative="1" as="geometry">
            <mxPoint x="750" y="220" as="sourcePoint" />
            <mxPoint x="860" y="190" as="targetPoint" />
          </mxGeometry>
        </mxCell>
        
        <!-- 标题 -->
        <mxCell id="title" value="大数据时代技术演进历程" style="text;html=1;strokeColor=none;fillColor=none;align=center;verticalAlign=middle;whiteSpace=wrap;rounded=0;fontSize=18;fontStyle=1;fontColor=#2c3e50;" vertex="1" parent="1">
          <mxGeometry x="400" y="30" width="300" height="40" as="geometry" />
        </mxCell>
        
        <!-- 数据规模标记 -->
        <mxCell id="data-mb" value="MB级" style="text;html=1;strokeColor=none;fillColor=none;align=center;verticalAlign=middle;whiteSpace=wrap;rounded=0;fontSize=10;fontColor=#e74c3c;" vertex="1" parent="1">
          <mxGeometry x="150" y="570" width="40" height="20" as="geometry" />
        </mxCell>
        
        <mxCell id="data-gb" value="GB级" style="text;html=1;strokeColor=none;fillColor=none;align=center;verticalAlign=middle;whiteSpace=wrap;rounded=0;fontSize=10;fontColor=#e74c3c;" vertex="1" parent="1">
          <mxGeometry x="410" y="420" width="40" height="20" as="geometry" />
        </mxCell>
        
        <mxCell id="data-tb" value="TB级" style="text;html=1;strokeColor=none;fillColor=none;align=center;verticalAlign=middle;whiteSpace=wrap;rounded=0;fontSize=10;fontColor=#e74c3c;" vertex="1" parent="1">
          <mxGeometry x="660" y="270" width="40" height="20" as="geometry" />
        </mxCell>
        
        <mxCell id="data-pb" value="PB级+" style="text;html=1;strokeColor=none;fillColor=none;align=center;verticalAlign=middle;whiteSpace=wrap;rounded=0;fontSize=10;fontColor=#e74c3c;" vertex="1" parent="1">
          <mxGeometry x="910" y="120" width="40" height="20" as="geometry" />
        </mxCell>
        
      </root>
    </mxGraphModel>
  </diagram>
</mxfile>
